classDiagram
    class ReprodutorMusical {
        <<interface>>
        +tocar()
        +pausar()
        +selecionarMusica(String musica)
    }

    class AparelhoTelefonico {
        <<interface>>
        +ligar(String numero)
        +atender()
        +iniciarCorreioVoz()
    }

    class NavegadorInternet {
        <<interface>>
        +exibirPagina(String url)
        +adicionarNovaAba()
        +atualizarPagina()
    }

    class Telefone {
    }

    Telefone --> ReprodutorMusical
    Telefone --> AparelhoTelefonico
    Telefone --> NavegadorInternet
